<svg width="253" height="253" viewBox="0 0 253 253" fill="none" xmlns="http://www.w3.org/2000/svg">
<rect x="6.32" y="6.32" width="240.733" height="240.733" rx="120.366" stroke="#FF0167" stroke-width="11.36"/>
<path d="M241.373 126.687C241.373 190.027 190.026 241.373 126.686 241.373C63.3469 241.373 12 190.027 12 126.687C12 63.3474 63.3469 12.0005 126.686 12.0005C190.026 12.0005 241.373 63.3474 241.373 126.687ZM43.1119 126.687C43.1119 172.844 80.5295 210.262 126.686 210.262C172.843 210.262 210.261 172.844 210.261 126.687C210.261 80.53 172.843 43.1124 126.686 43.1124C80.5295 43.1124 43.1119 80.53 43.1119 126.687Z" fill="#00B2CB"/>
<path fill-rule="evenodd" clip-rule="evenodd" d="M247.053 126.687C247.053 193.163 193.163 247.053 126.687 247.053C60.2102 247.053 6.32031 193.163 6.32031 126.687C6.32031 60.2102 60.2102 6.32031 126.687 6.32031C193.163 6.32031 247.053 60.2102 247.053 126.687ZM48.7922 126.687C48.7922 169.707 83.6668 204.581 126.687 204.581C169.707 204.581 204.581 169.707 204.581 126.687C204.581 83.6668 169.707 48.7922 126.687 48.7922C83.6668 48.7922 48.7922 83.6668 48.7922 126.687ZM126.687 241.373C190.026 241.373 241.373 190.026 241.373 126.687C241.373 63.3472 190.026 12.0003 126.687 12.0003C63.3472 12.0003 12.0003 63.3472 12.0003 126.687C12.0003 190.026 63.3472 241.373 126.687 241.373ZM126.687 210.261C80.5298 210.261 43.1122 172.844 43.1122 126.687C43.1122 80.5298 80.5298 43.1122 126.687 43.1122C172.844 43.1122 210.261 80.5298 210.261 126.687C210.261 172.844 172.844 210.261 126.687 210.261Z" fill="white"/>
<path d="M129.173 125.012C127.185 128.361 124.678 135.879 130.549 139.167C136.419 142.455 142.472 135.666 144.765 131.861C146.6 122.577 143.769 101.937 120 107.204C98.4618 111.977 97.0684 139.167 101.197 150.126C111.745 166.412 140.087 189.212 169.072 150.126C178.703 130.644 183.839 89.214 127.338 79.3512C81.9336 75.2414 25.5245 148.3 108.535 199.44C77.1954 189.699 25.0662 141.907 70.9273 77.9821C85.6683 57.4343 141.355 31.0179 182.371 77.9821C196.389 94.0339 215.024 136.793 182.371 171.131C166.319 186.046 125.502 206.929 90.6478 171.131C53.7021 123.186 120.061 60.3156 154.655 108.646C162.791 120.011 165.203 151.567 139.72 156.976C103.29 160.243 105.323 115.881 129.173 125.012Z" fill="#FF0066"/>
</svg>
