<?xml version="1.0" standalone="no"?>
<!DOCTYPE svg PUBLIC "-//W3C//DTD SVG 20010904//EN"
 "http://www.w3.org/TR/2001/REC-SVG-20010904/DTD/svg10.dtd">
<svg version="1.0" xmlns="http://www.w3.org/2000/svg"
 width="1136.000000pt" height="1136.000000pt" viewBox="0 0 1136.000000 1136.000000"
 preserveAspectRatio="xMidYMid meet">
<metadata>
Created by potrace 1.14, written by Peter Selinger 2001-2017
</metadata>
<g transform="translate(0.000000,1136.000000) scale(0.100000,-0.100000)"
fill="#000000" stroke="none">
<path d="M5648 11313 c-13 -21 -27 -46 -33 -55 -5 -10 -54 -89 -108 -175 -54
-87 -104 -167 -110 -178 -7 -11 -28 -45 -48 -75 -19 -31 -38 -62 -42 -70 -4
-8 -20 -34 -35 -57 -15 -24 -49 -79 -77 -124 -27 -45 -59 -96 -70 -113 -11
-18 -47 -77 -80 -132 -33 -54 -63 -103 -68 -109 -4 -5 -55 -86 -112 -180 -57
-93 -108 -174 -112 -180 -4 -5 -17 -27 -28 -47 -11 -21 -23 -38 -27 -38 -5 0
-8 -4 -8 -10 0 -5 -31 -59 -70 -121 -38 -61 -70 -113 -70 -115 0 -2 -21 -37
-47 -77 -25 -39 -56 -88 -68 -107 -12 -19 -41 -66 -65 -105 -24 -38 -53 -86
-65 -105 -12 -19 -41 -66 -65 -105 -24 -38 -50 -81 -59 -95 -15 -22 -111 -180
-144 -235 -7 -11 -14 -22 -17 -25 -3 -3 -12 -18 -20 -35 -8 -16 -21 -34 -27
-38 -7 -4 -13 -12 -13 -18 0 -9 -139 -237 -226 -371 -24 -37 -44 -72 -44 -77
0 -5 -6 -16 -13 -23 -7 -7 -37 -53 -67 -102 -30 -49 -65 -105 -77 -125 -13
-20 -26 -43 -30 -51 -4 -8 -11 -19 -15 -25 -8 -9 -341 -545 -456 -735 -25 -41
-76 -124 -114 -183 -37 -59 -68 -110 -68 -113 0 -3 -10 -20 -22 -37 -26 -36
-40 -59 -64 -104 -10 -18 -21 -33 -26 -33 -4 0 -8 -6 -8 -14 0 -8 -6 -21 -13
-28 -7 -7 -16 -20 -20 -28 -4 -8 -16 -28 -27 -45 -11 -16 -27 -43 -36 -60 -9
-16 -20 -32 -23 -35 -3 -3 -13 -17 -21 -32 -14 -25 -140 -230 -182 -296 -10
-15 -22 -36 -27 -48 -5 -11 -15 -27 -23 -35 -7 -8 -22 -31 -33 -52 -11 -21
-28 -47 -38 -58 -10 -10 -16 -19 -13 -19 2 0 -31 -57 -75 -127 -43 -70 -79
-129 -79 -132 0 -5 137 -85 259 -151 25 -14 48 -27 51 -30 3 -3 16 -11 29 -18
13 -8 40 -23 60 -34 20 -12 56 -32 81 -46 25 -13 50 -28 55 -32 6 -4 33 -20
60 -35 77 -43 122 -68 394 -225 138 -80 275 -158 304 -173 28 -16 73 -42 100
-58 26 -16 52 -29 57 -29 6 0 10 -4 10 -8 0 -4 12 -13 28 -20 15 -6 45 -23 67
-36 22 -14 54 -32 70 -40 17 -8 48 -27 70 -41 22 -13 47 -28 55 -32 8 -4 48
-26 88 -50 41 -24 76 -43 78 -43 3 0 30 -16 60 -35 30 -19 56 -35 58 -35 2 0
86 -48 187 -106 101 -58 209 -120 239 -137 30 -16 72 -41 92 -54 21 -12 40
-23 43 -23 2 0 34 -18 70 -40 36 -22 67 -40 69 -40 2 0 33 -17 67 -38 35 -21
79 -45 97 -53 17 -8 32 -17 32 -21 0 -5 7 -8 15 -8 8 0 15 -4 15 -10 0 -5 4
-10 10 -10 5 0 72 -36 148 -80 76 -44 144 -80 150 -80 7 0 12 -4 12 -10 0 -5
7 -10 15 -10 8 0 15 -4 15 -10 0 -5 4 -10 10 -10 5 0 42 -19 82 -43 40 -23 93
-53 119 -66 l45 -24 49 27 c27 15 168 96 314 180 146 84 286 164 311 178 75
42 224 128 240 138 8 5 53 31 99 57 47 26 105 60 130 75 25 15 53 31 61 35 8
4 53 29 100 56 47 27 103 59 125 72 22 12 84 48 137 79 53 31 102 56 107 56 6
0 11 4 11 9 0 5 8 11 18 15 9 3 24 10 32 15 44 30 190 111 199 111 6 0 11 4
11 8 0 4 12 13 28 19 15 7 50 26 77 43 28 16 76 45 108 63 88 48 108 60 152
86 22 14 54 32 70 41 30 16 151 86 183 105 9 6 53 30 97 55 44 25 89 50 100
57 11 7 27 15 35 19 8 4 43 25 78 46 34 21 62 35 62 32 0 -2 6 0 13 6 14 12
112 71 177 106 25 14 68 38 95 55 28 16 59 34 70 40 11 5 29 15 40 22 11 7 52
30 90 51 39 22 87 50 107 63 l38 23 -32 53 c-18 28 -37 55 -42 59 -6 4 -7 8
-2 8 5 0 2 8 -6 18 -15 16 -198 310 -198 317 0 5 -87 138 -99 152 -6 7 -11 15
-11 18 0 4 -65 112 -145 240 -80 128 -145 238 -145 244 0 6 -4 11 -8 11 -5 0
-15 12 -23 28 -12 23 -80 134 -137 222 -9 14 -16 28 -15 31 1 4 -7 15 -17 24
-11 10 -20 22 -20 27 0 5 -19 39 -43 76 -51 79 -108 169 -122 194 -20 35 -157
255 -200 323 -25 39 -48 78 -51 88 -4 9 -10 17 -15 17 -5 0 -9 5 -9 10 0 6
-18 38 -40 71 -22 33 -40 63 -40 65 0 3 -17 31 -37 62 -21 31 -47 74 -58 95
-11 20 -22 37 -26 37 -4 0 -9 8 -13 18 -3 9 -11 26 -18 37 -61 94 -88 137 -88
142 0 3 -10 19 -22 36 -26 36 -42 62 -60 97 -7 14 -15 27 -18 30 -6 5 -41 61
-65 102 -12 21 -106 173 -151 243 -17 28 -32 54 -32 59 0 5 -4 12 -9 15 -11 8
-47 64 -48 73 0 4 -8 16 -17 27 -9 11 -22 30 -29 43 -13 25 -280 457 -385 624
-35 55 -64 106 -64 112 0 7 -4 12 -8 12 -5 0 -17 17 -29 38 -11 20 -87 145
-169 277 -83 132 -153 247 -157 255 -4 8 -26 42 -48 75 -22 33 -42 68 -45 78
-4 9 -10 17 -15 17 -5 0 -9 5 -9 10 0 6 -15 34 -34 63 -18 28 -71 113 -116
187 -135 219 -153 247 -202 325 -27 41 -48 79 -48 85 0 5 -4 10 -10 10 -5 0
-10 5 -10 10 0 6 -18 38 -40 71 -22 33 -40 64 -40 69 0 6 -23 20 -35 20 -2 0
-14 -17 -27 -37z"/>
<path d="M2160 4922 c0 -9 14 -30 35 -57 14 -17 160 -220 205 -285 39 -55 191
-267 204 -285 9 -11 35 -47 58 -80 23 -33 46 -64 51 -70 10 -12 132 -184 195
-274 25 -36 50 -70 54 -76 18 -22 77 -104 123 -170 26 -38 51 -72 54 -75 3 -3
26 -34 50 -70 25 -36 48 -66 53 -68 4 -2 8 -8 8 -13 0 -5 7 -17 15 -26 13 -17
110 -151 202 -282 21 -29 44 -59 51 -67 6 -7 12 -17 12 -22 0 -6 3 -12 8 -14
4 -1 20 -23 37 -48 16 -25 32 -47 35 -50 8 -7 207 -285 239 -332 13 -21 28
-38 32 -38 3 0 12 -13 19 -30 7 -17 16 -30 21 -30 5 0 9 -7 9 -15 0 -8 3 -15
8 -15 4 0 18 -17 32 -38 14 -20 48 -69 77 -109 29 -40 53 -76 53 -82 0 -5 4
-11 9 -13 5 -1 115 -151 244 -333 130 -181 243 -339 252 -350 9 -11 24 -32 33
-47 9 -16 20 -28 24 -28 4 0 8 -4 8 -10 0 -8 26 -45 83 -120 7 -9 28 -38 46
-65 19 -28 37 -52 40 -55 4 -3 11 -13 16 -22 6 -10 53 -76 105 -148 52 -72
100 -139 105 -148 6 -9 12 -19 16 -22 3 -3 21 -27 40 -55 18 -27 39 -55 44
-62 6 -6 21 -28 35 -48 14 -20 35 -49 48 -65 12 -15 22 -32 22 -38 0 -6 4 -12
8 -14 4 -1 40 -48 80 -103 39 -55 76 -105 82 -112 5 -7 10 -17 10 -23 0 -5 4
-10 8 -10 4 0 15 -12 24 -27 9 -16 24 -37 33 -48 8 -11 49 -67 90 -123 l74
-104 23 25 c28 31 35 40 150 202 51 72 96 132 100 133 5 2 8 8 8 13 0 6 5 15
10 22 6 7 33 44 61 82 27 39 55 77 62 86 7 8 17 23 22 32 9 15 401 560 418
582 16 20 138 191 154 215 10 14 47 66 83 115 36 50 76 107 90 127 14 21 28
38 33 38 4 0 7 5 7 11 0 6 21 39 48 74 26 35 53 72 60 82 7 10 58 81 113 158
55 77 123 173 152 213 50 70 192 268 219 304 19 25 43 59 199 278 76 107 146
205 155 218 10 12 88 122 176 245 87 122 165 231 174 242 15 19 123 171 154
215 15 22 163 227 177 246 4 5 13 17 18 26 13 22 96 136 162 225 29 39 53 76
53 81 0 6 4 12 8 14 7 3 95 119 142 188 8 12 30 42 48 66 17 23 32 45 32 48 0
3 8 14 18 25 28 30 191 265 191 276 0 11 -31 8 -39 -4 -3 -4 -25 -18 -50 -32
-25 -13 -47 -27 -50 -30 -3 -4 -23 -16 -45 -28 -22 -11 -62 -34 -90 -51 -27
-17 -61 -36 -75 -43 -14 -6 -27 -14 -30 -18 -3 -3 -39 -25 -80 -48 -41 -23
-88 -50 -105 -59 -16 -9 -60 -36 -97 -59 -38 -24 -70 -43 -72 -43 -2 0 -78
-43 -168 -97 -89 -53 -176 -103 -193 -112 -16 -9 -35 -22 -43 -28 -7 -7 -24
-16 -38 -19 -13 -3 -24 -10 -24 -14 0 -4 -8 -10 -17 -14 -10 -3 -31 -14 -48
-24 -16 -11 -46 -28 -65 -39 -19 -11 -87 -51 -150 -88 -63 -37 -129 -76 -146
-85 -16 -10 -67 -39 -112 -66 -45 -27 -95 -56 -112 -65 -16 -9 -35 -21 -42
-27 -7 -5 -35 -22 -63 -36 -27 -15 -68 -38 -90 -52 -22 -13 -71 -42 -110 -64
-38 -23 -77 -45 -85 -50 -8 -5 -55 -33 -105 -61 -49 -29 -101 -59 -115 -68
-14 -9 -34 -21 -45 -27 -11 -6 -99 -57 -195 -114 -268 -158 -274 -161 -292
-167 -10 -3 -18 -9 -18 -14 0 -5 -4 -9 -9 -9 -7 0 -163 -89 -211 -120 -8 -6
-22 -13 -30 -17 -8 -4 -37 -21 -65 -38 -27 -17 -57 -35 -65 -38 -8 -4 -28 -16
-45 -27 -63 -41 -85 -51 -85 -39 0 7 -3 10 -6 6 -3 -3 -56 24 -117 60 -62 36
-132 77 -157 91 -25 14 -61 36 -80 49 -19 12 -40 23 -46 23 -7 0 -14 3 -16 8
-3 6 -59 40 -258 155 -19 11 -48 28 -65 38 -16 10 -47 27 -67 38 -21 11 -57
33 -80 48 -24 15 -45 27 -48 28 -3 0 -19 10 -37 23 -17 12 -34 22 -37 22 -5 0
-203 115 -276 160 -8 5 -76 44 -150 87 -74 43 -136 81 -138 85 -2 5 -7 8 -11
8 -5 0 -70 36 -145 80 -75 44 -141 80 -146 80 -6 0 -10 4 -10 8 0 4 -22 19
-50 33 -27 13 -50 27 -50 32 0 4 -5 7 -10 7 -6 0 -29 12 -53 27 -23 15 -44 28
-47 28 -3 0 -17 8 -32 18 -58 36 -78 47 -85 49 -5 1 -38 21 -76 45 -37 24 -69
43 -71 43 -6 0 -157 89 -188 112 -16 11 -28 16 -28 12 0 -4 -8 0 -17 8 -10 9
-38 27 -63 41 -49 27 -556 324 -710 415 -104 62 -150 85 -150 74z"/>
</g>
</svg>
